<svg width="47" height="23" viewBox="0 0 47 23" fill="none" xmlns="http://www.w3.org/2000/svg">
<path d="M17.5137 22H11.3846C8.63044 22 5.98908 20.8938 4.04158 18.9246C2.09409 16.9555 1 14.2848 1 11.5C1 8.71523 2.09409 6.04451 4.04158 4.07538C5.98908 2.10625 8.63044 1 11.3846 1H17.3785M29.6215 1H35.6154C38.3696 1 41.0109 2.10625 42.9584 4.07538C44.9059 6.04451 46 8.71523 46 11.5C46 14.2848 44.9059 16.9555 42.9584 18.9246C41.0109 20.8938 38.3696 22 35.6154 22H29.4863M14.0965 11.5H33.1198" stroke="#DEDEDE" stroke-width="2" stroke-linecap="round" stroke-linejoin="round"/>
</svg>
