<svg width="136" height="41" viewBox="0 0 136 41" fill="none" xmlns="http://www.w3.org/2000/svg">
<rect width="136" height="40.85" rx="10" fill="black"/>
<path d="M16.26 27V14.04H20.391C20.499 14.04 20.712 14.043 21.03 14.049C21.354 14.055 21.666 14.076 21.966 14.112C22.992 14.244 23.859 14.61 24.567 15.21C25.281 15.804 25.821 16.563 26.187 17.487C26.553 18.411 26.736 19.422 26.736 20.52C26.736 21.618 26.553 22.629 26.187 23.553C25.821 24.477 25.281 25.239 24.567 25.839C23.859 26.433 22.992 26.796 21.966 26.928C21.672 26.964 21.363 26.985 21.039 26.991C20.715 26.997 20.499 27 20.391 27H16.26ZM18.465 24.957H20.391C20.571 24.957 20.799 24.951 21.075 24.939C21.357 24.927 21.606 24.9 21.822 24.858C22.434 24.744 22.932 24.471 23.316 24.039C23.7 23.607 23.982 23.082 24.162 22.464C24.348 21.846 24.441 21.198 24.441 20.52C24.441 19.818 24.348 19.158 24.162 18.54C23.976 17.922 23.688 17.403 23.298 16.983C22.914 16.563 22.422 16.296 21.822 16.182C21.606 16.134 21.357 16.107 21.075 16.101C20.799 16.089 20.571 16.083 20.391 16.083H18.465V24.957ZM32.7825 27.27C31.7985 27.27 30.9345 27.057 30.1905 26.631C29.4465 26.205 28.8645 25.614 28.4445 24.858C28.0305 24.102 27.8235 23.232 27.8235 22.248C27.8235 21.186 28.0275 20.265 28.4355 19.485C28.8435 18.699 29.4105 18.09 30.1365 17.658C30.8625 17.226 31.7025 17.01 32.6565 17.01C33.6645 17.01 34.5195 17.247 35.2215 17.721C35.9295 18.189 36.4545 18.852 36.7965 19.71C37.1385 20.568 37.2675 21.579 37.1835 22.743H35.0325V21.951C35.0265 20.895 34.8405 20.124 34.4745 19.638C34.1085 19.152 33.5325 18.909 32.7465 18.909C31.8585 18.909 31.1985 19.185 30.7665 19.737C30.3345 20.283 30.1185 21.084 30.1185 22.14C30.1185 23.124 30.3345 23.886 30.7665 24.426C31.1985 24.966 31.8285 25.236 32.6565 25.236C33.1905 25.236 33.6495 25.119 34.0335 24.885C34.4235 24.645 34.7235 24.3 34.9335 23.85L37.0755 24.498C36.7035 25.374 36.1275 26.055 35.3475 26.541C34.5735 27.027 33.7185 27.27 32.7825 27.27ZM29.4345 22.743V21.105H36.1215V22.743H29.4345ZM42.4446 27.27C41.2446 27.27 40.2696 27 39.5196 26.46C38.7696 25.92 38.3136 25.161 38.1516 24.183L40.3656 23.841C40.4796 24.321 40.7316 24.699 41.1216 24.975C41.5116 25.251 42.0036 25.389 42.5976 25.389C43.1196 25.389 43.5216 25.287 43.8036 25.083C44.0916 24.873 44.2356 24.588 44.2356 24.228C44.2356 24.006 44.1816 23.829 44.0736 23.697C43.9716 23.559 43.7436 23.427 43.3896 23.301C43.0356 23.175 42.4926 23.016 41.7606 22.824C40.9446 22.608 40.2966 22.377 39.8166 22.131C39.3366 21.879 38.9916 21.582 38.7816 21.24C38.5716 20.898 38.4666 20.484 38.4666 19.998C38.4666 19.392 38.6256 18.864 38.9436 18.414C39.2616 17.964 39.7056 17.619 40.2756 17.379C40.8456 17.133 41.5176 17.01 42.2916 17.01C43.0476 17.01 43.7166 17.127 44.2986 17.361C44.8866 17.595 45.3606 17.928 45.7206 18.36C46.0806 18.792 46.3026 19.299 46.3866 19.881L44.1726 20.277C44.1186 19.863 43.9296 19.536 43.6056 19.296C43.2876 19.056 42.8616 18.921 42.3276 18.891C41.8176 18.861 41.4066 18.939 41.0946 19.125C40.7826 19.305 40.6266 19.56 40.6266 19.89C40.6266 20.076 40.6896 20.235 40.8156 20.367C40.9416 20.499 41.1936 20.631 41.5716 20.763C41.9556 20.895 42.5256 21.057 43.2816 21.249C44.0556 21.447 44.6736 21.675 45.1356 21.933C45.6036 22.185 45.9396 22.488 46.1436 22.842C46.3536 23.196 46.4586 23.625 46.4586 24.129C46.4586 25.107 46.1016 25.875 45.3876 26.433C44.6796 26.991 43.6986 27.27 42.4446 27.27ZM48.1099 15.804V13.815H50.2789V15.804H48.1099ZM48.1099 27V17.28H50.2789V27H48.1099ZM56.5608 31.59C56.0208 31.59 55.5018 31.506 55.0038 31.338C54.5118 31.17 54.0678 30.927 53.6718 30.609C53.2758 30.297 52.9518 29.919 52.6998 29.475L54.6978 28.485C54.8838 28.839 55.1448 29.1 55.4808 29.268C55.8228 29.442 56.1858 29.529 56.5698 29.529C57.0198 29.529 57.4218 29.448 57.7758 29.286C58.1298 29.13 58.4028 28.896 58.5948 28.584C58.7928 28.278 58.8858 27.894 58.8738 27.432V24.669H59.1438V17.28H61.0428V27.468C61.0428 27.714 61.0308 27.948 61.0068 28.17C60.9888 28.398 60.9558 28.62 60.9078 28.836C60.7638 29.466 60.4878 29.982 60.0798 30.384C59.6718 30.792 59.1648 31.095 58.5588 31.293C57.9588 31.491 57.2928 31.59 56.5608 31.59ZM56.3718 27.27C55.4778 27.27 54.6978 27.045 54.0318 26.595C53.3658 26.145 52.8498 25.533 52.4838 24.759C52.1178 23.985 51.9348 23.112 51.9348 22.14C51.9348 21.156 52.1178 20.28 52.4838 19.512C52.8558 18.738 53.3808 18.129 54.0588 17.685C54.7368 17.235 55.5348 17.01 56.4528 17.01C57.3768 17.01 58.1508 17.235 58.7748 17.685C59.4048 18.129 59.8818 18.738 60.2058 19.512C60.5298 20.286 60.6918 21.162 60.6918 22.14C60.6918 23.106 60.5298 23.979 60.2058 24.759C59.8818 25.533 59.3988 26.145 58.7568 26.595C58.1148 27.045 57.3198 27.27 56.3718 27.27ZM56.7048 25.326C57.2868 25.326 57.7548 25.194 58.1088 24.93C58.4688 24.66 58.7298 24.285 58.8918 23.805C59.0598 23.325 59.1438 22.77 59.1438 22.14C59.1438 21.504 59.0598 20.949 58.8918 20.475C58.7298 19.995 58.4748 19.623 58.1268 19.359C57.7788 19.089 57.3288 18.954 56.7768 18.954C56.1948 18.954 55.7148 19.098 55.3368 19.386C54.9588 19.668 54.6798 20.052 54.4998 20.538C54.3198 21.018 54.2298 21.552 54.2298 22.14C54.2298 22.734 54.3168 23.274 54.4908 23.76C54.6708 24.24 54.9438 24.621 55.3098 24.903C55.6758 25.185 56.1408 25.326 56.7048 25.326ZM69.7896 27V22.32C69.7896 22.014 69.7686 21.675 69.7266 21.303C69.6846 20.931 69.5856 20.574 69.4296 20.232C69.2796 19.884 69.0516 19.599 68.7456 19.377C68.4456 19.155 68.0376 19.044 67.5216 19.044C67.2456 19.044 66.9726 19.089 66.7026 19.179C66.4326 19.269 66.1866 19.425 65.9646 19.647C65.7486 19.863 65.5746 20.163 65.4426 20.547C65.3106 20.925 65.2446 21.411 65.2446 22.005L63.9576 21.456C63.9576 20.628 64.1166 19.878 64.4346 19.206C64.7586 18.534 65.2326 18 65.8566 17.604C66.4806 17.202 67.2486 17.001 68.1606 17.001C68.8806 17.001 69.4746 17.121 69.9426 17.361C70.4106 17.601 70.7826 17.907 71.0586 18.279C71.3346 18.651 71.5386 19.047 71.6706 19.467C71.8026 19.887 71.8866 20.286 71.9226 20.664C71.9646 21.036 71.9856 21.339 71.9856 21.573V27H69.7896ZM63.0486 27V17.28H64.9836V20.295H65.2446V27H63.0486ZM76.5702 27L72.7812 14.04H75.0582L77.6412 23.4L80.2152 14.058L82.4922 14.04L85.0752 23.4L87.6492 14.04H89.9262L86.1462 27H84.0042L81.3492 17.784L78.7122 27H76.5702ZM94.1155 27.27C93.1435 27.27 92.2945 27.051 91.5685 26.613C90.8425 26.175 90.2785 25.572 89.8765 24.804C89.4805 24.03 89.2825 23.142 89.2825 22.14C89.2825 21.12 89.4865 20.226 89.8945 19.458C90.3025 18.69 90.8695 18.09 91.5955 17.658C92.3215 17.226 93.1615 17.01 94.1155 17.01C95.0935 17.01 95.9455 17.229 96.6715 17.667C97.3975 18.105 97.9615 18.711 98.3635 19.485C98.7655 20.253 98.9665 21.138 98.9665 22.14C98.9665 23.148 98.7625 24.039 98.3545 24.813C97.9525 25.581 97.3885 26.184 96.6625 26.622C95.9365 27.054 95.0875 27.27 94.1155 27.27ZM94.1155 25.236C94.9795 25.236 95.6215 24.948 96.0415 24.372C96.4615 23.796 96.6715 23.052 96.6715 22.14C96.6715 21.198 96.4585 20.448 96.0325 19.89C95.6065 19.326 94.9675 19.044 94.1155 19.044C93.5335 19.044 93.0535 19.176 92.6755 19.44C92.3035 19.698 92.0275 20.061 91.8475 20.529C91.6675 20.991 91.5775 21.528 91.5775 22.14C91.5775 23.082 91.7905 23.835 92.2165 24.399C92.6485 24.957 93.2815 25.236 94.1155 25.236ZM100.449 27V17.28H102.366V19.647L102.132 19.341C102.252 19.017 102.411 18.723 102.609 18.459C102.813 18.189 103.056 17.967 103.338 17.793C103.578 17.631 103.842 17.505 104.13 17.415C104.424 17.319 104.724 17.262 105.03 17.244C105.336 17.22 105.633 17.232 105.921 17.28V19.305C105.633 19.221 105.3 19.194 104.922 19.224C104.55 19.254 104.214 19.359 103.914 19.539C103.614 19.701 103.368 19.908 103.176 20.16C102.99 20.412 102.852 20.7 102.762 21.024C102.672 21.342 102.627 21.687 102.627 22.059V27H100.449ZM107.319 27V13.77H109.488V27H107.319ZM115.581 27.27C114.687 27.27 113.907 27.045 113.241 26.595C112.575 26.145 112.059 25.533 111.693 24.759C111.327 23.985 111.144 23.112 111.144 22.14C111.144 21.156 111.327 20.28 111.693 19.512C112.065 18.738 112.59 18.129 113.268 17.685C113.946 17.235 114.744 17.01 115.662 17.01C116.586 17.01 117.36 17.235 117.984 17.685C118.614 18.129 119.091 18.738 119.415 19.512C119.739 20.286 119.901 21.162 119.901 22.14C119.901 23.106 119.739 23.979 119.415 24.759C119.091 25.533 118.608 26.145 117.966 26.595C117.324 27.045 116.529 27.27 115.581 27.27ZM115.914 25.326C116.496 25.326 116.964 25.194 117.318 24.93C117.678 24.66 117.939 24.285 118.101 23.805C118.269 23.325 118.353 22.77 118.353 22.14C118.353 21.504 118.269 20.949 118.101 20.475C117.939 19.995 117.684 19.623 117.336 19.359C116.988 19.089 116.538 18.954 115.986 18.954C115.404 18.954 114.924 19.098 114.546 19.386C114.168 19.668 113.889 20.052 113.709 20.538C113.529 21.018 113.439 21.552 113.439 22.14C113.439 22.734 113.526 23.274 113.7 23.76C113.88 24.24 114.153 24.621 114.519 24.903C114.885 25.185 115.35 25.326 115.914 25.326ZM118.353 27V20.178H118.083V14.04H120.27V27H118.353Z" fill="#DEDEDE"/>
</svg>
